# xmcd
#
# Track frame offsets:
#	150
#	10990
#	22447
#	35462
#	51727
#	62465
#	81780
#	94125
#	103690
#	110135
#	123005
#	140052
#	151125
#	159595
#	169775
#	179475
#	204042
#	214300
#	224102
#	239820
#
# Disc length: 3314 seconds
#
# Revision: 0
# Processed by: cddbd v1.5.1PL0 Copyright (c) Steve Scherf et al.
# Submitted via: EasyCDDAExtractor 8.0.2.1
#
DISCID=2e0cf014
DTITLE=Orkland mannskor og Skogn Misjonskor - Å tro
DYEAR=1995
DGENRE=Christian
TTITLE0=Herre vår herre
TTITLE1=Mitt kors, o krist
TTITLE2=Er din synd som skarlagen
TTITLE3=Rise up, shepperd
TTITLE4=Frå djupet ropar eg
TTITLE5=Så vide som land
TTITLE6=Å tro
TTITLE7=Strid for di tru
TTITLE8=Du sviktet aldri
TTITLE9=Lovsang
TTITLE10=Frid, himmelsk frid
TTITLE11=Si noe godt om Jesus
TTITLE12=Den som har sonen, han har livet
TTITLE13=Credo- jeg tror
TTITLE14=Salme 96
TTITLE15=O, jeg så en ny himmel
TTITLE16=Akk, mon min vei
TTITLE17=Simeons sang
TTITLE18=Hjemme i himlen
TTITLE19=Lovsang
EXTD=
EXTT0=
EXTT1=
EXTT2=
EXTT3=
EXTT4=
EXTT5=
EXTT6=
EXTT7=
EXTT8=
EXTT9=
EXTT10=
EXTT11=
EXTT12=
EXTT13=
EXTT14=
EXTT15=
EXTT16=
EXTT17=
EXTT18=
EXTT19=
PLAYORDER=
